<svg xmlns="http://www.w3.org/2000/svg" viewBox="0 0 165 105">
  <rect width="165" height="105" rx="10" fill="#000"/>
  <path d="M43.5 36.2c-1.7 2-4.4 3.6-7.1 3.4-.3-2.7 1-5.6 2.6-7.3 1.7-2 4.7-3.5 7.1-3.6.3 2.8-.8 5.6-2.6 7.5zm2.5 4c-3.9-.2-7.3 2.2-9.1 2.2-1.9 0-4.7-2.1-7.8-2-4 .1-7.7 2.3-9.8 5.9-4.2 7.2-1.1 17.9 3 23.8 2 2.9 4.4 6.1 7.6 6 3-.1 4.2-2 7.8-2 3.7 0 4.7 2 7.9 1.9 3.3-.1 5.3-3 7.3-5.9 2.3-3.3 3.2-6.5 3.3-6.7-.1 0-6.3-2.4-6.4-9.5-.1-6 4.9-8.8 5.1-9-2.8-4.1-7.1-4.5-8.9-4.6zM76.8 32h-13v41.3h5v-14.1h6.9c6.3 0 10.7-4.3 10.7-13.6-.1-5.9-3-13.6-9.6-13.6zm-1.2 22.6H63.8V36.9h5.6c5.1 0 7.9 2.7 7.9 8.8-.1 5.8-2.8 8.9-7.7 8.9zm29.8-7.7c-4.8 0-8.3 2.6-8.4 6.2h4.7c.4-1.7 1.9-2.8 3.6-2.8 2.3 0 3.6 1.4 3.6 3.8v1.7l-5 .3c-4.6.3-7.1 2.2-7.1 5.5 0 3.4 2.6 5.6 6.5 5.6 2.6 0 5-.1 6.5-2v1.7h4.6V54.8c0-5-3.1-7.9-9-7.9zm3.5 16.6c0 2.8-2.4 4.7-5.6 4.7-2.1 0-3.5-1-3.5-2.7 0-1.8 1.3-2.8 4-3l5.1-.3v1.3zm14.4 12.4c2.4 6.6 5.2 8.8 9.8 8.8 1.1 0 2-.1 2.5-.3v-3.9c-.5.1-1 .2-1.7.2-2.3 0-3.6-1-4.8-4.1l-.8-2-8.5-23.5h5.2l6 18.1 6-18.1h5l-8.7 24.8z" fill="#fff"/>
</svg>
