<svg xmlns="http://www.w3.org/2000/svg" viewBox="0 0 750 471">
  <rect width="750" height="471" rx="40" fill="#1A1F71"/>
  <path d="M278.2 334.5l33.3-195.7h53.2l-33.3 195.7h-53.2zM524.3 142.8c-10.5-3.9-27-8.1-47.6-8.1-52.5 0-89.5 26.4-89.8 64.2-.3 27.9 26.4 43.5 46.6 52.8 20.7 9.5 27.7 15.6 27.6 24.1-.1 13-16.6 18.9-31.9 18.9-21.3 0-32.7-2.9-50.2-10l-6.9-3.1-7.5 43.7c12.4 5.4 35.4 10.1 59.3 10.3 55.9 0 92.2-26.1 92.6-66.5.2-22.1-14-39-44.7-52.9-18.6-9-30-15-29.9-24.1 0-8.1 9.7-16.7 30.5-16.7 17.4-.3 30 3.5 39.8 7.4l4.8 2.2 7.3-42.2zM661.4 138.8h-41c-12.7 0-22.2 3.5-27.8 16.2l-78.9 178.5h55.8s9.1-24 11.2-29.3c6.1 0 60.4.1 68.1.1 1.6 6.8 6.5 29.2 6.5 29.2h49.3l-43.2-194.7zm-65.5 124.7c4.4-11.2 21.2-54.4 21.2-54.4-.3.5 4.4-11.3 7.1-18.6l3.6 16.8s10.2 46.7 12.4 56.2h-44.3zM232.7 138.8l-52 133.5-5.5-27c-9.7-31.1-39.7-64.9-73.3-81.8l47.6 170.9 56.2-.1 83.6-195.5h-56.6z" fill="#fff"/>
  <path d="M131.5 138.8H46.6l-.7 4c66 16 109.7 54.5 127.9 100.8l-18.4-88.6c-3.2-12.4-12.5-15.8-23.9-16.2z" fill="#F9A51A"/>
</svg>
